# xmcd
#
# Track frame offsets: 
#        150
#        14366
#        25264
#        35272
#        54216
#        68260
#        82320
#        102886
#        113878
#        129538
#        147802
#        161680
#        172168
#        186870
#        197323
#        212025
#        222942
#        232411
#        248700
#        259292
#        269367
#        282933
#        298513
#        311082
#        322119
#        332770
#        349079
#
# Disc length: 4829 seconds
#
# Revision: 0
# Processed by: cddbd v1.5.2PL0 Copyright (c) Steve Scherf et al.
# Submitted via: ExactAudioCopy v0.95b4
#
DISCID=9d12db1b
DTITLE=Waylon Jennings - The Restless Kid Live At JD's
DYEAR=2000
DGENRE=Country
TTITLE0=Just To Satisfy You
TTITLE1=I Don't Care
TTITLE2=Girl From The North Country
TTITLE3=The Last Letter
TTITLE4=Burning Memories
TTITLE5=Hi-heeled Sneakers
TTITLE6=Lorena
TTITLE7=I Wonder Where You Are Tonight
TTITLE8=Sloop John B
TTITLE9=Second Chance
TTITLE10=You're My One And Only
TTITLE11=Kisses Sweeter Than Wine
TTITLE12=Heartaches For A Dime
TTITLE13=Excuse Me
TTITLE14=Still In Town
TTITLE15=Take Me Home
TTITLE16=The Restless Kid
TTITLE17=The Streets Of Laredo
TTITLE18=Pretty Paper
TTITLE19=Dream Baby
TTITLE20=Alpha And Omega
TTITLE21=Candy Man
TTITLE22=Memphis Tennessee
TTITLE23=Th' Wife
TTITLE24=I'm Gonna Marry Polly Ann
TTITLE25=Down Came The World
TTITLE26=It Ain't Me Babe
EXTD=
EXTT0=
EXTT1=
EXTT2=
EXTT3=
EXTT4=
EXTT5=
EXTT6=
EXTT7=
EXTT8=
EXTT9=
EXTT10=
EXTT11=
EXTT12=
EXTT13=
EXTT14=
EXTT15=
EXTT16=
EXTT17=
EXTT18=
EXTT19=
EXTT20=
EXTT21=
EXTT22=
EXTT23=
EXTT24=
EXTT25=
EXTT26=
PLAYORDER=
